<?xml version="1.0" encoding="utf-8"?>
<!-- Generator: Adobe Illustrator 26.0.3, SVG Export Plug-In . SVG Version: 6.00 Build 0)  -->
<svg version="1.1" id="レイヤー_1" xmlns="http://www.w3.org/2000/svg" xmlns:xlink="http://www.w3.org/1999/xlink" x="0px"
	 y="0px" viewBox="0 0 520 312" style="enable-background:new 0 0 520 312;" xml:space="preserve">
<style type="text/css">
	.st0{fill-rule:evenodd;clip-rule:evenodd;fill:#2B00FF;}
	.st1{enable-background:new    ;}
	.st2{fill:#EEEEEE;}
</style>
<rect class="st0" width="520" height="312"/>
<g class="st1">
	<path class="st2" d="M80.4,185.9v-60.8h9.4v60.8H80.4z"/>
	<path class="st2" d="M136.9,155.8v30.1h-8.3v-27.8c0-5.8-2.5-9.7-8.8-9.7c-7.1,0-11.7,4.3-11.7,10.9v26.6h-8.3v-43.4h8.3v5.4h0.2
		c2.3-3.3,6.8-6.7,14.3-6.7C130.4,141.2,136.9,145.8,136.9,155.8z"/>
	<path class="st2" d="M143,171.4h8.4c0.3,5,3.4,8.9,11.5,8.9c7.3,0,9.3-3.2,9.3-6.4c0-5.4-5.8-6-11.4-7.2c-7.6-1.8-16.2-4-16.2-13
		c0-7.5,6-12.5,16.5-12.5c11.9,0,17.6,6.4,18.2,13.9h-8.4c-0.6-3.3-2.4-7.1-9.6-7.1c-5.6,0-8,2.2-8,5.4c0,4.5,4.8,4.9,11,6.3
		c8,1.9,16.7,4.2,16.7,13.9c0,8.4-6.5,13.5-17.9,13.5C149.8,187.1,143.3,180.3,143,171.4z"/>
	<path class="st2" d="M206.4,179.2v6.7c-2.1,0.4-3.5,0.5-5.3,0.5c-7.1,0-11.5-2.7-11.5-12.8v-24.2h-6.3v-6.9h6.3v-13.9h8.3v13.9h8.3
		v6.9H198v24.5c0,4.6,1.3,5.6,4.8,5.6C204.3,179.5,205,179.4,206.4,179.2z"/>
	<path class="st2" d="M211.1,174.7c0-9.7,7.3-12.6,18.1-14.6c6.8-1.3,11-2.1,11-6.4c0-3.1-1.9-5.8-8.2-5.8c-7.6,0-9.9,2.4-10.3,8.2
		h-8.5c0.4-8.3,5.9-14.9,19.1-14.9c8.9,0,16.1,3.7,16.1,15V176c0,3.1,0.4,4.8,2,4.8c0.3,0,0.5,0,1-0.1v5.1c-1.4,0.3-2.9,0.5-4.3,0.5
		c-4.2,0-6.4-1.6-6.9-6.5h-0.2c-2.8,4.5-7.7,7.3-14.8,7.3C216.6,187.1,211.1,182.1,211.1,174.7z M240.2,169v-6.2
		c-1.4,1.3-5.1,2.2-9.5,3.1c-7.7,1.5-10.9,3.7-10.9,8.2c0,4.1,2.2,6.3,7.4,6.3C234.6,180.4,240.2,176.5,240.2,169z"/>
	<path class="st2" d="M288.5,142.5h8.3v40c0,13.1-7.9,19-20.3,19c-12.4,0-18.6-6-19.5-13.8h8.7c0.8,3.9,3.7,7,10.8,7
		c7.9,0,12-3.5,12-11.6v-5.9h-0.2c-2.4,3.5-6.4,6.5-13.3,6.5c-10.8,0-19.1-7.3-19.1-21.2c0-13.9,8.3-21.3,19.1-21.3
		c7,0,11,3.3,13.3,6.4h0.2V142.5z M288.4,162.5c0-9.5-4.4-14.3-11.9-14.3c-8.2,0-12,6.1-12,14.3c0,8.2,3.8,14.3,12,14.3
		C284,176.8,288.4,171.9,288.4,162.5z"/>
	<path class="st2" d="M330.3,141.8v8c-1-0.2-1.8-0.3-2.8-0.3c-7.6,0-13,5.7-13,13.9v22.4h-8.3v-43.4h8.3v8.2h0.2
		c2.3-5.4,5.8-9.3,11.6-9.3C327.8,141.5,329,141.6,330.3,141.8z"/>
	<path class="st2" d="M331.9,174.7c0-9.7,7.3-12.6,18.1-14.6c6.8-1.3,11-2.1,11-6.4c0-3.1-1.9-5.8-8.2-5.8c-7.6,0-9.9,2.4-10.3,8.2
		H334c0.4-8.3,5.9-14.9,19.1-14.9c8.9,0,16.1,3.7,16.1,15V176c0,3.1,0.4,4.8,2,4.8c0.3,0,0.5,0,1-0.1v5.1c-1.4,0.3-2.9,0.5-4.2,0.5
		c-4.2,0-6.4-1.6-6.9-6.5h-0.2c-2.8,4.5-7.7,7.3-14.8,7.3C337.5,187.1,331.9,182.1,331.9,174.7z M361,169v-6.2
		c-1.4,1.3-5.1,2.2-9.5,3.1c-7.7,1.5-10.9,3.7-10.9,8.2c0,4.1,2.2,6.3,7.4,6.3C355.5,180.4,361,176.5,361,169z"/>
	<path class="st2" d="M439.6,155.8v30.1h-8.3v-27.8c0-5.8-1.2-9.7-7.6-9.7c-6.2,0-10.1,4.3-10.1,10.9v26.6h-8.3v-27.8
		c0-5.8-1.2-9.7-7.6-9.7c-6.2,0-10.1,4.3-10.1,10.9v26.6h-8.3v-43.4h8.3v5.4h0.2c2.3-3.3,6.3-6.7,12.8-6.7c6,0,9.8,2.7,11.5,7.6h0.2
		c3.1-4.2,7.6-7.6,14.2-7.6C435.2,141.2,439.6,146.5,439.6,155.8z"/>
</g>
<g>
	<path class="st2" d="M518,2v308H2V2H518 M520,0H0v312h520V0L520,0z"/>
</g>
</svg>
